<?xml version="1.0" encoding="UTF-8"?>
<svg width="28px" height="28px" viewBox="0 0 28 28" version="1.1" xmlns="http://www.w3.org/2000/svg" xmlns:xlink="http://www.w3.org/1999/xlink">
    <title>Group 9</title>
    <g id="Page-1" stroke="none" stroke-width="1" fill="none" fill-rule="evenodd">
        <g id="Artboard-Copy-6" transform="translate(-257.000000, -47.000000)" fill="#056FFF">
            <g id="Group-5">
                <g id="Group-8" transform="translate(15.000000, 37.000000)">
                    <g id="Group-9" transform="translate(242.000000, 10.000000)">
                        <path d="M14,0 C21.7319865,0 28,6.2680135 28,14 C28,21.7319865 21.7319865,28 14,28 C6.2680135,28 0,21.7319865 0,14 C0,6.2680135 6.2680135,0 14,0 Z M15,7 L13,7 L13,13 L7,13 L7,15 L13,15 L13,21 L15,21 L15,15 L21,15 L21,13 L15,13 L15,7 Z" id="Combined-Shape"></path>
                    </g>
                </g>
            </g>
        </g>
    </g>
</svg>